<svg width="15" height="15" viewBox="0 0 15 15" fill="none" xmlns="http://www.w3.org/2000/svg">
<path d="M12.1644 9.58455C11.6416 9.06847 10.9891 9.06847 10.4697 9.58455C10.0734 9.97743 9.67722 10.3703 9.28767 10.7699C9.18112 10.8797 9.09122 10.903 8.96137 10.8298C8.705 10.69 8.43198 10.5767 8.18559 10.4236C7.0369 9.70108 6.07467 8.77214 5.22231 7.72667C4.79946 7.20726 4.42322 6.65123 4.16019 6.02528C4.10692 5.89876 4.11691 5.81552 4.22012 5.71231C4.61634 5.32941 5.00256 4.93652 5.39212 4.54364C5.93483 3.9976 5.93483 3.35833 5.38879 2.80895C5.07914 2.49598 4.76949 2.18966 4.45985 1.87669C4.14021 1.55705 3.82391 1.23409 3.50094 0.917781C2.97821 0.408363 2.32562 0.408363 1.80621 0.921111C1.40667 1.314 1.02377 1.71687 0.61757 2.10309C0.241333 2.45935 0.0515499 2.89552 0.0115955 3.40494C-0.0516656 4.23399 0.151436 5.01643 0.437775 5.7789C1.02377 7.35709 1.91609 8.75883 2.99818 10.044C4.45985 11.782 6.20452 13.1571 8.24552 14.1493C9.16447 14.5955 10.1167 14.9384 11.1522 14.995C11.8647 15.035 12.484 14.8552 12.9801 14.2992C13.3197 13.9196 13.7026 13.5733 14.0622 13.2104C14.5949 12.671 14.5983 12.0184 14.0689 11.4857C13.4363 10.8498 12.8003 10.2172 12.1644 9.58455Z" fill="#029F59"/>
</svg>
